<?xml version="1.0" encoding="UTF-8"?>
<svg width="48px" height="48px" viewBox="0 0 48 48" version="1.1" xmlns="http://www.w3.org/2000/svg" xmlns:xlink="http://www.w3.org/1999/xlink">
    <title>Facebook</title>
    <g id="Homepage" stroke="none" stroke-width="1" fill="none" fill-rule="evenodd">
        <g id="D_FB_Vision_Homepage_09182019" transform="translate(-402.000000, -1879.000000)">
            <g id="2.What-We-Build" transform="translate(0.000000, 1639.000000)">
                <g id="FOA-icons" transform="translate(402.000000, 239.000000)">
                    <g id="Facebook" transform="translate(0.000000, 1.000000)">
                        <path d="M48,23.8936525 C48,10.6975429 37.2548437,0 24,0 C10.7451563,0 0,10.6975429 0,23.8936525 C0,35.8196651 8.77645312,45.7045438 20.25,47.4970344 L20.25,30.8004114 L14.15625,30.8004114 L14.15625,23.8936525 L20.25,23.8936525 L20.25,18.6295822 C20.25,12.6412355 23.8330312,9.333458 29.3151563,9.333458 C31.9409531,9.333458 34.6875,9.8001309 34.6875,9.8001309 L34.6875,15.6802094 L31.6611562,15.6802094 C28.6797656,15.6802094 27.75,17.5220274 27.75,19.4115859 L27.75,23.8936525 L34.40625,23.8936525 L33.3421875,30.8004114 L27.75,30.8004114 L27.75,47.4970344 C39.2235469,45.7045438 48,35.8196651 48,23.8936525" id="Fill-1" fill="#1877F2"></path>
                        <path d="M33.1731164,30.4494034 L34.2226027,23.5179491 L27.6575342,23.5179491 L27.6575342,19.0198567 C27.6575342,17.1235419 28.5745634,15.2751385 31.515113,15.2751385 L34.5,15.2751385 L34.5,9.37403546 C34.5,9.37403546 31.7910771,8.90569395 29.20125,8.90569395 C23.7942226,8.90569395 20.260274,12.2252986 20.260274,18.2350568 L20.260274,23.5179491 L14.25,23.5179491 L14.25,30.4494034 L20.260274,30.4494034 L20.260274,47.205726 C21.4654264,47.3972777 22.7006301,47.4970344 23.9589041,47.4970344 C25.2171781,47.4970344 26.4523818,47.3972777 27.6575342,47.205726 L27.6575342,30.4494034 L33.1731164,30.4494034" id="Fill-4" fill="#FFFFFF"></path>
                    </g>
                </g>
            </g>
        </g>
    </g>
</svg>